lc = 1e-2;

cSurf[] = {};
vol[] = {};

//Volume6

Point(4773) = {3.6881, 0.6839, 0.10548, lc} ;
Point(4774) = {3.68966, 0.684023, 0.10548, lc} ;
Point(4775) = {3.69119, 0.684389, 0.10548, lc} ;
Point(4776) = {3.69264, 0.68499, 0.10548, lc} ;
Point(4777) = {3.69398, 0.68581, 0.10548, lc} ;
Point(4778) = {3.69517, 0.686829, 0.10548, lc} ;
Point(4779) = {3.69619, 0.688022, 0.10548, lc} ;
Point(4780) = {3.69673, 0.6889, 0.10548, lc} ;
Point(4781) = {3.70492, 0.6889, 0.10548, lc} ;
Point(4782) = {3.70492, 0.6879, 0.10548, lc} ;
Point(4783) = {3.76792, 0.6879, 0.10548, lc} ;
Point(4784) = {3.76792, 0.6999, 0.10548, lc} ;
Point(4785) = {3.70492, 0.6999, 0.10548, lc} ;
Point(4786) = {3.70492, 0.6989, 0.10548, lc} ;
Point(4787) = {3.69673, 0.6989, 0.10548, lc} ;
Point(4788) = {3.69619, 0.699778, 0.10548, lc} ;
Point(4789) = {3.69517, 0.700971, 0.10548, lc} ;
Point(4790) = {3.69398, 0.70199, 0.10548, lc} ;
Point(4791) = {3.69264, 0.70281, 0.10548, lc} ;
Point(4792) = {3.69119, 0.703411, 0.10548, lc} ;
Point(4793) = {3.68966, 0.703777, 0.10548, lc} ;
Point(4794) = {3.6881, 0.7039, 0.10548, lc} ;
Point(4795) = {3.68654, 0.703777, 0.10548, lc} ;
Point(4796) = {3.68501, 0.703411, 0.10548, lc} ;
Point(4797) = {3.68356, 0.70281, 0.10548, lc} ;
Point(4798) = {3.68222, 0.70199, 0.10548, lc} ;
Point(4799) = {3.68103, 0.700971, 0.10548, lc} ;
Point(4800) = {3.68001, 0.699778, 0.10548, lc} ;
Point(4801) = {3.67919, 0.69844, 0.10548, lc} ;
Point(4802) = {3.67859, 0.69699, 0.10548, lc} ;
Point(4803) = {3.67822, 0.695464, 0.10548, lc} ;
Point(4804) = {3.6781, 0.6939, 0.10548, lc} ;
Point(4805) = {3.67822, 0.692336, 0.10548, lc} ;
Point(4806) = {3.67859, 0.69081, 0.10548, lc} ;
Point(4807) = {3.67919, 0.68936, 0.10548, lc} ;
Point(4808) = {3.68001, 0.688022, 0.10548, lc} ;
Point(4809) = {3.68103, 0.686829, 0.10548, lc} ;
Point(4810) = {3.68222, 0.68581, 0.10548, lc} ;
Point(4811) = {3.68356, 0.68499, 0.10548, lc} ;
Point(4812) = {3.68501, 0.684389, 0.10548, lc} ;
Point(4813) = {3.68654, 0.684023, 0.10548, lc} ;
Line(4814) = {4773,4774} ;
Line(4815) = {4774,4775} ;
Line(4816) = {4775,4776} ;
Line(4817) = {4776,4777} ;
Line(4818) = {4777,4778} ;
Line(4819) = {4778,4779} ;
Line(4820) = {4779,4780} ;
Line(4821) = {4780,4781} ;
Line(4822) = {4781,4782} ;
Line(4823) = {4782,4783} ;
Line(4824) = {4783,4784} ;
Line(4825) = {4784,4785} ;
Line(4826) = {4785,4786} ;
Line(4827) = {4786,4787} ;
Line(4828) = {4787,4788} ;
Line(4829) = {4788,4789} ;
Line(4830) = {4789,4790} ;
Line(4831) = {4790,4791} ;
Line(4832) = {4791,4792} ;
Line(4833) = {4792,4793} ;
Line(4834) = {4793,4794} ;
Line(4835) = {4794,4795} ;
Line(4836) = {4795,4796} ;
Line(4837) = {4796,4797} ;
Line(4838) = {4797,4798} ;
Line(4839) = {4798,4799} ;
Line(4840) = {4799,4800} ;
Line(4841) = {4800,4801} ;
Line(4842) = {4801,4802} ;
Line(4843) = {4802,4803} ;
Line(4844) = {4803,4804} ;
Line(4845) = {4804,4805} ;
Line(4846) = {4805,4806} ;
Line(4847) = {4806,4807} ;
Line(4848) = {4807,4808} ;
Line(4849) = {4808,4809} ;
Line(4850) = {4809,4810} ;
Line(4851) = {4810,4811} ;
Line(4852) = {4811,4812} ;
Line(4853) = {4812,4813} ;
Line(4854) = {4813,4773} ;

bottom1[] = {4814,4815,4816,4817,4818,4819,4820,4821,4822,4823,4824,4825,4826,4827,4828,4829,4830,4831,4832,4833,4834,4835,4836,4837,4838,4839,4840,4841,4842,4843,4844,4845,4846,4847,4848,4849,4850,4851,4852,4853,4854} ;
Line Loop(4855) = bottom1[]; 
Plane Surface(4856) = {4855} ;
cSurf[#cSurf[]] = 4856;
tmp[] = Extrude{0,0,0.00137}{ Surface{4856}; };

//cSurf[#cSurf[]] = tmp[0];
vol[#vol[]] = tmp[1];
top1[] = {};
val1 = 4858-bottom1[0];

For i In {0:#bottom1[]-1}
	top1[i] = bottom1[i] + val1;
EndFor

//Volume 8

Point(5992) = {3.6881,0.6939,0.09548, lc};
Point(5993) = {3.6881,0.6989,0.09548, lc};
Point(5994) = {3.6931,0.6939,0.09548, lc};
Point(5995) = {3.6881,0.6889,0.09548, lc};
Point(5996) = {3.6831,0.6939,0.09548, lc};
Circle(5997) = {5993, 5992,5994};
Circle(5998) = {5994, 5992,5995};
Circle(5999) = {5995, 5992,5996};
Circle(6000) = {5996, 5992,5993};


bottom2[] = {5997,5998,5999,6000};
Line Loop(6001) = bottom2[];
Plane Surface(6002) = {6001};
cSurf[#cSurf[]] = 6002;

tmp[] = Extrude {0,0,0.01} { 
  Surface{6002};
};

cSurf[#cSurf[]] = tmp[0];
vol[#vol[]] = tmp[1];
top2[] = bottom2[];
val1 = 6004-bottom2[0];

For i In {0:#bottom2[]-1}
	top2[i] = bottom2[i] + val1;
EndFor


//Volume 5
Point(3851) = {3.6881, 0.6839, 0.08548, lc} ;
Point(3852) = {3.68966, 0.684023, 0.08548, lc} ;
Point(3853) = {3.69119, 0.684389, 0.08548, lc} ;
Point(3854) = {3.69264, 0.68499, 0.08548, lc} ;
Point(3855) = {3.69398, 0.68581, 0.08548, lc} ;
Point(3856) = {3.69517, 0.686829, 0.08548, lc} ;
Point(3857) = {3.69619, 0.688022, 0.08548, lc} ;
Point(3858) = {3.69701, 0.68936, 0.08548, lc} ;
Point(3859) = {3.69761, 0.69081, 0.08548, lc} ;
Point(3860) = {3.69798, 0.692336, 0.08548, lc} ;
Point(3861) = {3.6981, 0.6939, 0.08548, lc} ;
Point(3862) = {3.69798, 0.695464, 0.08548, lc} ;
Point(3863) = {3.69761, 0.69699, 0.08548, lc} ;
Point(3864) = {3.69701, 0.69844, 0.08548, lc} ;
Point(3865) = {3.69619, 0.699778, 0.08548, lc} ;
Point(3866) = {3.69517, 0.700971, 0.08548, lc} ;
Point(3867) = {3.69398, 0.70199, 0.08548, lc} ;
Point(3868) = {3.69264, 0.70281, 0.08548, lc} ;
Point(3869) = {3.69119, 0.703411, 0.08548, lc} ;
Point(3870) = {3.68966, 0.703777, 0.08548, lc} ;
Point(3871) = {3.6881, 0.7039, 0.08548, lc} ;
Point(3872) = {3.68654, 0.703777, 0.08548, lc} ;
Point(3873) = {3.68501, 0.703411, 0.08548, lc} ;
Point(3874) = {3.68356, 0.70281, 0.08548, lc} ;
Point(3875) = {3.68222, 0.70199, 0.08548, lc} ;
Point(3876) = {3.68103, 0.700971, 0.08548, lc} ;
Point(3877) = {3.68001, 0.699778, 0.08548, lc} ;
Point(3878) = {3.67919, 0.69844, 0.08548, lc} ;
Point(3879) = {3.67859, 0.69699, 0.08548, lc} ;
Point(3880) = {3.67822, 0.695464, 0.08548, lc} ;
Point(3881) = {3.6781, 0.6939, 0.08548, lc} ;
Point(3882) = {3.67822, 0.692336, 0.08548, lc} ;
Point(3883) = {3.67859, 0.69081, 0.08548, lc} ;
Point(3884) = {3.67919, 0.68936, 0.08548, lc} ;
Point(3885) = {3.68001, 0.688022, 0.08548, lc} ;
Point(3886) = {3.68103, 0.686829, 0.08548, lc} ;
Point(3887) = {3.68222, 0.68581, 0.08548, lc} ;
Point(3888) = {3.68356, 0.68499, 0.08548, lc} ;
Point(3889) = {3.68501, 0.684389, 0.08548, lc} ;
Point(3890) = {3.68654, 0.684023, 0.08548, lc} ;
Line(3891) = {3851,3852} ;
Line(3892) = {3852,3853} ;
Line(3893) = {3853,3854} ;
Line(3894) = {3854,3855} ;
Line(3895) = {3855,3856} ;
Line(3896) = {3856,3857} ;
Line(3897) = {3857,3858} ;
Line(3898) = {3858,3859} ;
Line(3899) = {3859,3860} ;
Line(3900) = {3860,3861} ;
Line(3901) = {3861,3862} ;
Line(3902) = {3862,3863} ;
Line(3903) = {3863,3864} ;
Line(3904) = {3864,3865} ;
Line(3905) = {3865,3866} ;
Line(3906) = {3866,3867} ;
Line(3907) = {3867,3868} ;
Line(3908) = {3868,3869} ;
Line(3909) = {3869,3870} ;
Line(3910) = {3870,3871} ;
Line(3911) = {3871,3872} ;
Line(3912) = {3872,3873} ;
Line(3913) = {3873,3874} ;
Line(3914) = {3874,3875} ;
Line(3915) = {3875,3876} ;
Line(3916) = {3876,3877} ;
Line(3917) = {3877,3878} ;
Line(3918) = {3878,3879} ;
Line(3919) = {3879,3880} ;
Line(3920) = {3880,3881} ;
Line(3921) = {3881,3882} ;
Line(3922) = {3882,3883} ;
Line(3923) = {3883,3884} ;
Line(3924) = {3884,3885} ;
Line(3925) = {3885,3886} ;
Line(3926) = {3886,3887} ;
Line(3927) = {3887,3888} ;
Line(3928) = {3888,3889} ;
Line(3929) = {3889,3890} ;
Line(3930) = {3890,3851} ;

bottom3[] = {3891,3892,3893,3894,3895,3896,3897,3898,3899,3900,3901,3902,3903,3904,3905,3906,3907,3908,3909,3910,3911,3912,3913,3914,3915,3916,3917,3918,3919,3920,3921,3922,3923,3924,3925,3926,3927,3928,3929,3930} ;
Line Loop(3931) = bottom3[];
Plane Surface(3932) = {3931} ;

cSurf[#cSurf[]] = 3932;

tmp[] = Extrude {0,0,0.01} { 
  Surface{3932};
};

cSurf[#cSurf[]] = tmp[0];
vol[#vol[]] = tmp[1];
top3[] = bottom3[];
val1 = 6026-bottom3[0];

For i In {0:#bottom3[]-1}
	top3[i] = bottom3[i] + val1;
EndFor



//Volume 10 
Point(6550) = {3.6881,0.6939,0.03548, lc};
Point(6551) = {3.6881,0.6989,0.03548, lc};
Point(6552) = {3.6931,0.6939,0.03548, lc};
Point(6553) = {3.6881,0.6889,0.03548, lc};
Point(6554) = {3.6831,0.6939,0.03548, lc};
Circle(6555) = {6551, 6550,6552};
Circle(6556) = {6552, 6550,6553};
Circle(6557) = {6553, 6550,6554};
Circle(6558) = {6554, 6550,6551};



bottom4[] = {6555,6556,6557,6558};

Line Loop(6559) = bottom4[]; 

Plane Surface(6560) = {6559};

cSurf[#cSurf[]] = 6560;

tmp[] = Extrude {0,0,0.05} { 
  Surface{6560};
};

cSurf[#cSurf[]] = tmp[0];
vol[#vol[]] = tmp[1];
top4[] = bottom4[];
val1 = 6562-bottom4[0];

For i In {0:#bottom4[]-1}
	top4[i] = bottom4[i] + val1;
EndFor


//Volume 4
Point(2929) = {3.6881, 0.6839, 0.03411, lc} ;
Point(2930) = {3.68966, 0.684023, 0.03411, lc} ;
Point(2931) = {3.69119, 0.684389, 0.03411, lc} ;
Point(2932) = {3.69264, 0.68499, 0.03411, lc} ;
Point(2933) = {3.69398, 0.68581, 0.03411, lc} ;
Point(2934) = {3.69517, 0.686829, 0.03411, lc} ;
Point(2935) = {3.69619, 0.688022, 0.03411, lc} ;
Point(2936) = {3.69701, 0.68936, 0.03411, lc} ;
Point(2937) = {3.69761, 0.69081, 0.03411, lc} ;
Point(2938) = {3.69798, 0.692336, 0.03411, lc} ;
Point(2939) = {3.6981, 0.6939, 0.03411, lc} ;
Point(2940) = {3.69798, 0.695464, 0.03411, lc} ;
Point(2941) = {3.69761, 0.69699, 0.03411, lc} ;
Point(2942) = {3.69701, 0.69844, 0.03411, lc} ;
Point(2943) = {3.69619, 0.699778, 0.03411, lc} ;
Point(2944) = {3.69517, 0.700971, 0.03411, lc} ;
Point(2945) = {3.69398, 0.70199, 0.03411, lc} ;
Point(2946) = {3.69264, 0.70281, 0.03411, lc} ;
Point(2947) = {3.69119, 0.703411, 0.03411, lc} ;
Point(2948) = {3.68966, 0.703777, 0.03411, lc} ;
Point(2949) = {3.6881, 0.7039, 0.03411, lc} ;
Point(2950) = {3.68654, 0.703777, 0.03411, lc} ;
Point(2951) = {3.68501, 0.703411, 0.03411, lc} ;
Point(2952) = {3.68356, 0.70281, 0.03411, lc} ;
Point(2953) = {3.68222, 0.70199, 0.03411, lc} ;
Point(2954) = {3.68103, 0.700971, 0.03411, lc} ;
Point(2955) = {3.68001, 0.699778, 0.03411, lc} ;
Point(2956) = {3.67919, 0.69844, 0.03411, lc} ;
Point(2957) = {3.67859, 0.69699, 0.03411, lc} ;
Point(2958) = {3.67822, 0.695464, 0.03411, lc} ;
Point(2959) = {3.6781, 0.6939, 0.03411, lc} ;
Point(2960) = {3.67822, 0.692336, 0.03411, lc} ;
Point(2961) = {3.67859, 0.69081, 0.03411, lc} ;
Point(2962) = {3.67919, 0.68936, 0.03411, lc} ;
Point(2963) = {3.68001, 0.688022, 0.03411, lc} ;
Point(2964) = {3.68103, 0.686829, 0.03411, lc} ;
Point(2965) = {3.68222, 0.68581, 0.03411, lc} ;
Point(2966) = {3.68356, 0.68499, 0.03411, lc} ;
Point(2967) = {3.68501, 0.684389, 0.03411, lc} ;
Point(2968) = {3.68654, 0.684023, 0.03411, lc} ;
Line(2969) = {2929,2930} ;
Line(2970) = {2930,2931} ;
Line(2971) = {2931,2932} ;
Line(2972) = {2932,2933} ;
Line(2973) = {2933,2934} ;
Line(2974) = {2934,2935} ;
Line(2975) = {2935,2936} ;
Line(2976) = {2936,2937} ;
Line(2977) = {2937,2938} ;
Line(2978) = {2938,2939} ;
Line(2979) = {2939,2940} ;
Line(2980) = {2940,2941} ;
Line(2981) = {2941,2942} ;
Line(2982) = {2942,2943} ;
Line(2983) = {2943,2944} ;
Line(2984) = {2944,2945} ;
Line(2985) = {2945,2946} ;
Line(2986) = {2946,2947} ;
Line(2987) = {2947,2948} ;
Line(2988) = {2948,2949} ;
Line(2989) = {2949,2950} ;
Line(2990) = {2950,2951} ;
Line(2991) = {2951,2952} ;
Line(2992) = {2952,2953} ;
Line(2993) = {2953,2954} ;
Line(2994) = {2954,2955} ;
Line(2995) = {2955,2956} ;
Line(2996) = {2956,2957} ;
Line(2997) = {2957,2958} ;
Line(2998) = {2958,2959} ;
Line(2999) = {2959,2960} ;
Line(3000) = {2960,2961} ;
Line(3001) = {2961,2962} ;
Line(3002) = {2962,2963} ;
Line(3003) = {2963,2964} ;
Line(3004) = {2964,2965} ;
Line(3005) = {2965,2966} ;
Line(3006) = {2966,2967} ;
Line(3007) = {2967,2968} ;
Line(3008) = {2968,2929} ;

bottom5[] = {2969,2970,2971,2972,2973,2974,2975,2976,2977,2978,2979,2980,2981,2982,2983,2984,2985,2986,2987,2988,2989,2990,2991,2992,2993,2994,2995,2996,2997,2998,2999,3000,3001,3002,3003,3004,3005,3006,3007,3008};

Line Loop(3009) = bottom5[]; 

Plane Surface(3010) = {3009} ;

cSurf[#cSurf[]] = 3010;

tmp[] = Extrude {0,0,0.00137} { 
  Surface{3010};
};

cSurf[#cSurf[]] = tmp[0];
vol[#vol[]] = tmp[1];
top5[] = bottom5[];
val1 = 6584-bottom5[0];

For i In {0:#bottom5[]-1}
	top5[i] = bottom5[i] + val1;
EndFor

//Volume 12 
Point(7108) = {3.6881,0.6939,0.02411, lc};
Point(7109) = {3.6881,0.6989,0.02411, lc};
Point(7110) = {3.6931,0.6939,0.02411, lc};
Point(7111) = {3.6881,0.6889,0.02411, lc};
Point(7112) = {3.6831,0.6939,0.02411, lc};
Circle(7113) = {7109, 7108,7110};
Circle(7114) = {7110, 7108,7111};
Circle(7115) = {7111, 7108,7112};
Circle(7116) = {7112, 7108,7109};


bottom6[] = {7113,7114,7115,7116};
Line Loop(7117) = bottom6[];

Plane Surface(7118) = {7117};

cSurf[#cSurf[]] = 7118;

tmp[] = Extrude {0,0,0.01} { 
  Surface{7118};
};

cSurf[#cSurf[]] = tmp[0];
vol[#vol[]] = tmp[1];
top6[] = bottom6[];
val1 = 7120-bottom6[0];

For i In {0:#bottom6[]-1}
	top6[i] = bottom6[i] + val1;
EndFor

//Volume 3
Point(2007) = {3.6881, 0.6839, 0.02274, lc} ;
Point(2008) = {3.68966, 0.684023, 0.02274, lc} ;
Point(2009) = {3.69119, 0.684389, 0.02274, lc} ;
Point(2010) = {3.69264, 0.68499, 0.02274, lc} ;
Point(2011) = {3.69398, 0.68581, 0.02274, lc} ;
Point(2012) = {3.69517, 0.686829, 0.02274, lc} ;
Point(2013) = {3.69619, 0.688022, 0.02274, lc} ;
Point(2014) = {3.69701, 0.68936, 0.02274, lc} ;
Point(2015) = {3.69761, 0.69081, 0.02274, lc} ;
Point(2016) = {3.69798, 0.692336, 0.02274, lc} ;
Point(2017) = {3.6981, 0.6939, 0.02274, lc} ;
Point(2018) = {3.69798, 0.695464, 0.02274, lc} ;
Point(2019) = {3.69761, 0.69699, 0.02274, lc} ;
Point(2020) = {3.69701, 0.69844, 0.02274, lc} ;
Point(2021) = {3.69619, 0.699778, 0.02274, lc} ;
Point(2022) = {3.69517, 0.700971, 0.02274, lc} ;
Point(2023) = {3.69398, 0.70199, 0.02274, lc} ;
Point(2024) = {3.69264, 0.70281, 0.02274, lc} ;
Point(2025) = {3.69119, 0.703411, 0.02274, lc} ;
Point(2026) = {3.68966, 0.703777, 0.02274, lc} ;
Point(2027) = {3.6881, 0.7039, 0.02274, lc} ;
Point(2028) = {3.68654, 0.703777, 0.02274, lc} ;
Point(2029) = {3.68501, 0.703411, 0.02274, lc} ;
Point(2030) = {3.68356, 0.70281, 0.02274, lc} ;
Point(2031) = {3.68222, 0.70199, 0.02274, lc} ;
Point(2032) = {3.68103, 0.700971, 0.02274, lc} ;
Point(2033) = {3.68001, 0.699778, 0.02274, lc} ;
Point(2034) = {3.67919, 0.69844, 0.02274, lc} ;
Point(2035) = {3.67859, 0.69699, 0.02274, lc} ;
Point(2036) = {3.67822, 0.695464, 0.02274, lc} ;
Point(2037) = {3.6781, 0.6939, 0.02274, lc} ;
Point(2038) = {3.67822, 0.692336, 0.02274, lc} ;
Point(2039) = {3.67859, 0.69081, 0.02274, lc} ;
Point(2040) = {3.67919, 0.68936, 0.02274, lc} ;
Point(2041) = {3.68001, 0.688022, 0.02274, lc} ;
Point(2042) = {3.68103, 0.686829, 0.02274, lc} ;
Point(2043) = {3.68222, 0.68581, 0.02274, lc} ;
Point(2044) = {3.68356, 0.68499, 0.02274, lc} ;
Point(2045) = {3.68501, 0.684389, 0.02274, lc} ;
Point(2046) = {3.68654, 0.684023, 0.02274, lc} ;
Line(2047) = {2007,2008} ;
Line(2048) = {2008,2009} ;
Line(2049) = {2009,2010} ;
Line(2050) = {2010,2011} ;
Line(2051) = {2011,2012} ;
Line(2052) = {2012,2013} ;
Line(2053) = {2013,2014} ;
Line(2054) = {2014,2015} ;
Line(2055) = {2015,2016} ;
Line(2056) = {2016,2017} ;
Line(2057) = {2017,2018} ;
Line(2058) = {2018,2019} ;
Line(2059) = {2019,2020} ;
Line(2060) = {2020,2021} ;
Line(2061) = {2021,2022} ;
Line(2062) = {2022,2023} ;
Line(2063) = {2023,2024} ;
Line(2064) = {2024,2025} ;
Line(2065) = {2025,2026} ;
Line(2066) = {2026,2027} ;
Line(2067) = {2027,2028} ;
Line(2068) = {2028,2029} ;
Line(2069) = {2029,2030} ;
Line(2070) = {2030,2031} ;
Line(2071) = {2031,2032} ;
Line(2072) = {2032,2033} ;
Line(2073) = {2033,2034} ;
Line(2074) = {2034,2035} ;
Line(2075) = {2035,2036} ;
Line(2076) = {2036,2037} ;
Line(2077) = {2037,2038} ;
Line(2078) = {2038,2039} ;
Line(2079) = {2039,2040} ;
Line(2080) = {2040,2041} ;
Line(2081) = {2041,2042} ;
Line(2082) = {2042,2043} ;
Line(2083) = {2043,2044} ;
Line(2084) = {2044,2045} ;
Line(2085) = {2045,2046} ;
Line(2086) = {2046,2007} ;


bottom7[] = {2047,2048,2049,2050,2051,2052,2053,2054,2055,2056,2057,2058,2059,2060,2061,2062,2063,2064,2065,2066,2067,2068,2069,2070,2071,2072,2073,2074,2075,2076,2077,2078,2079,2080,2081,2082,2083,2084,2085,2086} ;

Line Loop(2087) = bottom7[]; 

Plane Surface(2088) = {2087} ;

tmp[] = Extrude{0,0,0.00137}{ Surface{2088}; };

cSurf[#cSurf[]] = 2088;

cSurf[#cSurf[]] = tmp[0];
vol[#vol[]] = tmp[1];
top7[] = bottom7[];
val1 = 7142-bottom7[0];

For i In {0:#bottom7[]-1}
	top7[i] = bottom7[i] + val1;
EndFor


//Volume 14
Point(7666) = {3.6881,0.6939,0.01274, lc};
Point(7667) = {3.6881,0.6989,0.01274, lc};
Point(7668) = {3.6931,0.6939,0.01274, lc};
Point(7669) = {3.6881,0.6889,0.01274, lc};
Point(7670) = {3.6831,0.6939,0.01274, lc};
Circle(7671) = {7667, 7666,7668};
Circle(7672) = {7668, 7666,7669};
Circle(7673) = {7669, 7666,7670};
Circle(7674) = {7670, 7666,7667};

bottom8[] = {7671,7672,7673,7674};

Line Loop(7675) = bottom8[]; 

Plane Surface(7676) = {7675};

tmp[] = Extrude {0,0,0.01} { 
  Surface{7676};
};

cSurf[#cSurf[]] = 7676;

cSurf[#cSurf[]] = tmp[0];
vol[#vol[]] = tmp[1];
top8[] = bottom8[];
val1 = 7678 -bottom8[0];

For i In {0:#bottom8[]-1}
	top8[i] = bottom8[i] + val1;
EndFor

//Volume 2
Point(1085) = {3.6881, 0.6839, 0.01137, lc} ;
Point(1086) = {3.68966, 0.684023, 0.01137, lc} ;
Point(1087) = {3.69119, 0.684389, 0.01137, lc} ;
Point(1088) = {3.69264, 0.68499, 0.01137, lc} ;
Point(1089) = {3.69398, 0.68581, 0.01137, lc} ;
Point(1090) = {3.69517, 0.686829, 0.01137, lc} ;
Point(1091) = {3.69619, 0.688022, 0.01137, lc} ;
Point(1092) = {3.69701, 0.68936, 0.01137, lc} ;
Point(1093) = {3.69761, 0.69081, 0.01137, lc} ;
Point(1094) = {3.69798, 0.692336, 0.01137, lc} ;
Point(1095) = {3.6981, 0.6939, 0.01137, lc} ;
Point(1096) = {3.69798, 0.695464, 0.01137, lc} ;
Point(1097) = {3.69761, 0.69699, 0.01137, lc} ;
Point(1098) = {3.69701, 0.69844, 0.01137, lc} ;
Point(1099) = {3.69619, 0.699778, 0.01137, lc} ;
Point(1100) = {3.69517, 0.700971, 0.01137, lc} ;
Point(1101) = {3.69398, 0.70199, 0.01137, lc} ;
Point(1102) = {3.69264, 0.70281, 0.01137, lc} ;
Point(1103) = {3.69119, 0.703411, 0.01137, lc} ;
Point(1104) = {3.68966, 0.703777, 0.01137, lc} ;
Point(1105) = {3.6881, 0.7039, 0.01137, lc} ;
Point(1106) = {3.68654, 0.703777, 0.01137, lc} ;
Point(1107) = {3.68501, 0.703411, 0.01137, lc} ;
Point(1108) = {3.68356, 0.70281, 0.01137, lc} ;
Point(1109) = {3.68222, 0.70199, 0.01137, lc} ;
Point(1110) = {3.68103, 0.700971, 0.01137, lc} ;
Point(1111) = {3.68001, 0.699778, 0.01137, lc} ;
Point(1112) = {3.67919, 0.69844, 0.01137, lc} ;
Point(1113) = {3.67859, 0.69699, 0.01137, lc} ;
Point(1114) = {3.67822, 0.695464, 0.01137, lc} ;
Point(1115) = {3.6781, 0.6939, 0.01137, lc} ;
Point(1116) = {3.67822, 0.692336, 0.01137, lc} ;
Point(1117) = {3.67859, 0.69081, 0.01137, lc} ;
Point(1118) = {3.67919, 0.68936, 0.01137, lc} ;
Point(1119) = {3.68001, 0.688022, 0.01137, lc} ;
Point(1120) = {3.68103, 0.686829, 0.01137, lc} ;
Point(1121) = {3.68222, 0.68581, 0.01137, lc} ;
Point(1122) = {3.68356, 0.68499, 0.01137, lc} ;
Point(1123) = {3.68501, 0.684389, 0.01137, lc} ;
Point(1124) = {3.68654, 0.684023, 0.01137, lc} ;
Line(1125) = {1085,1086} ;
Line(1126) = {1086,1087} ;
Line(1127) = {1087,1088} ;
Line(1128) = {1088,1089} ;
Line(1129) = {1089,1090} ;
Line(1130) = {1090,1091} ;
Line(1131) = {1091,1092} ;
Line(1132) = {1092,1093} ;
Line(1133) = {1093,1094} ;
Line(1134) = {1094,1095} ;
Line(1135) = {1095,1096} ;
Line(1136) = {1096,1097} ;
Line(1137) = {1097,1098} ;
Line(1138) = {1098,1099} ;
Line(1139) = {1099,1100} ;
Line(1140) = {1100,1101} ;
Line(1141) = {1101,1102} ;
Line(1142) = {1102,1103} ;
Line(1143) = {1103,1104} ;
Line(1144) = {1104,1105} ;
Line(1145) = {1105,1106} ;
Line(1146) = {1106,1107} ;
Line(1147) = {1107,1108} ;
Line(1148) = {1108,1109} ;
Line(1149) = {1109,1110} ;
Line(1150) = {1110,1111} ;
Line(1151) = {1111,1112} ;
Line(1152) = {1112,1113} ;
Line(1153) = {1113,1114} ;
Line(1154) = {1114,1115} ;
Line(1155) = {1115,1116} ;
Line(1156) = {1116,1117} ;
Line(1157) = {1117,1118} ;
Line(1158) = {1118,1119} ;
Line(1159) = {1119,1120} ;
Line(1160) = {1120,1121} ;
Line(1161) = {1121,1122} ;
Line(1162) = {1122,1123} ;
Line(1163) = {1123,1124} ;
Line(1164) = {1124,1085} ;

bottom9[] =  {1125,1126,1127,1128,1129,1130,1131,1132,1133,1134,1135,1136,1137,1138,1139,1140,1141,1142,1143,1144,1145,1146,1147,1148,1149,1150,1151,1152,1153,1154,1155,1156,1157,1158,1159,1160,1161,1162,1163,1164} ;

Line Loop(1165) = bottom9[];
Plane Surface(1166) = {1165} ;

tmp[] = Extrude{0,0,0.00137}{ Surface{1166}; };


cSurf[#cSurf[]] = 1166 ;

cSurf[#cSurf[]] = tmp[0];
vol[#vol[]] = tmp[1];
top9[] = bottom9[];
val1 =7700 -bottom9[0];

For i In {0:#bottom9[]-1}
	top9[i] = bottom9[i] + val1;
EndFor


//Volume 16
Point(8224) = {3.6881,0.6939,0.00137, lc};
Point(8225) = {3.6881,0.6989,0.00137, lc};
Point(8226) = {3.6931,0.6939,0.00137, lc};
Point(8227) = {3.6881,0.6889,0.00137, lc};
Point(8228) = {3.6831,0.6939,0.00137, lc};
Circle(8229) = {8225, 8224,8226};
Circle(8230) = {8226, 8224,8227};
Circle(8231) = {8227, 8224,8228};
Circle(8232) = {8228, 8224,8225};

bottom10[] = {8229,8230,8231,8232};
Line Loop(8233) = bottom10[]; 
Plane Surface(8234) = {8233};
tmp[] = Extrude {0,0,0.01} { 
  Surface{8234};
};


cSurf[#cSurf[]] = 8234;

cSurf[#cSurf[]] = tmp[0];
vol[#vol[]] = tmp[1];
top10[] = bottom10[];
val1 = 8236 -bottom10[0];

For i In {0:#bottom10[]-1}
	top10[i] = bottom10[i] + val1;
EndFor



//Volume 1
Point(1) = {3.639, 0.59, 0, lc} ;
Point(2) = {3.701, 0.59, 0, lc} ;
Point(3) = {3.726, 0.615, 0, lc} ;
Point(4) = {3.729, 0.615, 0, lc} ;
Point(5) = {3.729, 0.635, 0, lc} ;
Point(6) = {3.727, 0.635, 0, lc} ;
Point(7) = {3.727, 0.655, 0, lc} ;
Point(8) = {3.729, 0.655, 0, lc} ;
Point(9) = {3.729, 0.675, 0, lc} ;
Point(10) = {3.727, 0.675, 0, lc} ;
Point(11) = {3.727, 0.686, 0, lc} ;
Point(12) = {3.732, 0.691, 0, lc} ;
Point(13) = {3.759, 0.691, 0, lc} ;
Point(14) = {3.78096, 0.71296, 0, lc} ;
Point(15) = {3.78096, 0.751, 0, lc} ;
Point(16) = {3.781, 0.751, 0, lc} ;
Point(17) = {3.781, 0.801, 0, lc} ;
Point(18) = {3.78096, 0.801, 0, lc} ;
Point(19) = {3.78096, 0.80804, 0, lc} ;
Point(20) = {3.78, 0.809, 0, lc} ;
Point(21) = {3.749, 0.809, 0, lc} ;
Point(22) = {3.741, 0.801, 0, lc} ;
Point(23) = {3.741, 0.741, 0, lc} ;
Point(24) = {3.704, 0.704, 0, lc} ;
Point(25) = {3.678, 0.704, 0, lc} ;
Point(26) = {3.674, 0.708, 0, lc} ;
Point(27) = {3.622, 0.708, 0, lc} ;
Point(28) = {3.6195, 0.7055, 0, lc} ;
Point(29) = {3.6195, 0.698, 0, lc} ;
Point(30) = {3.618, 0.698, 0, lc} ;
Point(31) = {3.618, 0.678, 0, lc} ;
Point(32) = {3.6195, 0.678, 0, lc} ;
Point(33) = {3.6195, 0.6735, 0, lc} ;
Point(34) = {3.6205, 0.6725, 0, lc} ;
Point(35) = {3.6335, 0.6725, 0, lc} ;
Point(36) = {3.639, 0.678, 0, lc} ;
Point(37) = {3.658, 0.678, 0, lc} ;
Point(38) = {3.658, 0.677, 0, lc} ;
Point(39) = {3.678, 0.677, 0, lc} ;
Point(40) = {3.678, 0.678, 0, lc} ;
Point(41) = {3.679, 0.678, 0, lc} ;
Point(42) = {3.685, 0.672, 0, lc} ;
Point(43) = {3.685, 0.641, 0, lc} ;
Point(44) = {3.6745, 0.6305, 0, lc} ;
Point(45) = {3.6545, 0.6305, 0, lc} ;
Point(46) = {3.639, 0.615, 0, lc} ;
Point(47) = {3.632, 0.615, 0, lc} ;
Point(48) = {3.632, 0.595, 0, lc} ;
Point(49) = {3.634, 0.595, 0, lc} ;
Line(50) = {1,2} ;
Line(51) = {2,3} ;
Line(52) = {3,4} ;
Line(53) = {4,5} ;
Line(54) = {5,6} ;
Line(55) = {6,7} ;
Line(56) = {7,8} ;
Line(57) = {8,9} ;
Line(58) = {9,10} ;
Line(59) = {10,11} ;
Line(60) = {11,12} ;
Line(61) = {12,13} ;
Line(62) = {13,14} ;
Line(63) = {14,15} ;
Line(64) = {15,16} ;
Line(65) = {16,17} ;
Line(66) = {17,18} ;
Line(67) = {18,19} ;
Line(68) = {19,20} ;
Line(69) = {20,21} ;
Line(70) = {21,22} ;
Line(71) = {22,23} ;
Line(72) = {23,24} ;
Line(73) = {24,25} ;
Line(74) = {25,26} ;
Line(75) = {26,27} ;
Line(76) = {27,28} ;
Line(77) = {28,29} ;
Line(78) = {29,30} ;
Line(79) = {30,31} ;
Line(80) = {31,32} ;
Line(81) = {32,33} ;
Line(82) = {33,34} ;
Line(83) = {34,35} ;
Line(84) = {35,36} ;
Line(85) = {36,37} ;
Line(86) = {37,38} ;
Line(87) = {38,39} ;
Line(88) = {39,40} ;
Line(89) = {40,41} ;
Line(90) = {41,42} ;
Line(91) = {42,43} ;
Line(92) = {43,44} ;
Line(93) = {44,45} ;
Line(94) = {45,46} ;
Line(95) = {46,47} ;
Line(96) = {47,48} ;
Line(97) = {48,49} ;
Line(98) = {49,1} ;

bottom11[] = {50,51,52,53,54,55,56,57,58,59,60,61,62,63,64,65,66,67,68,69,70,71,72,73,74,75,76,77,78,79,80,81,82,83,84,85,86,87,88,89,90,91,92,93,94,95,96,97,98} ;
Line Loop(99) = bottom11[]; 
Plane Surface(100) = {99} ;
tmp[] = Extrude{0,0,0.00137}{ Surface{100}; };

//Top
//cSurf[#cSurf[]] = 100;

cSurf[#cSurf[]] = tmp[0];
vol[#vol[]] = tmp[1];
top11[] = bottom11[];
val1 = 8258 -bottom11[0];

For i In {0:#bottom11[]-1}
	top11[i] = bottom11[i] + val1;
EndFor



////////////////////////////////////////////////////////////////////////////////////////////////////
ll1 = newll;
Line Loop(ll1) = bottom1[];
ll2 = newll;
Line Loop(ll2) = top2[];
Plane Surface(news) = {ll1, ll2};

ll1 = newll;
Line Loop(ll1) = bottom2[];
ll2 = newll;
Line Loop(ll2) = top3[];
Plane Surface(news) = {ll1, ll2};

ll1 = newll;
Line Loop(ll1) = bottom3[];
ll2 = newll;
Line Loop(ll2) = top4[];
Plane Surface(news) = {ll1, ll2};

ll1 = newll;
Line Loop(ll1) = bottom4[];
ll2 = newll;
Line Loop(ll2) = top5[];
Plane Surface(news) = {ll1, ll2};

ll1 = newll;
Line Loop(ll1) = bottom5[];
ll2 = newll;
Line Loop(ll2) = top6[];
Plane Surface(news) = {ll1, ll2};

ll1 = newll;
Line Loop(ll1) = bottom6[];
ll2 = newll;
Line Loop(ll2) = top7[];
Plane Surface(news) = {ll1, ll2};

ll1 = newll;
Line Loop(ll1) = bottom7[];
ll2 = newll;
Line Loop(ll2) = top8[];
Plane Surface(news) = {ll1, ll2};

ll1 = newll;
Line Loop(ll1) = bottom8[];
ll2 = newll;
Line Loop(ll2) = top9[];
Plane Surface(news) = {ll1, ll2};

ll1 = newll;
Line Loop(ll1) = bottom9[];
ll2 = newll;
Line Loop(ll2) = top10[];
Plane Surface(news) = {ll1, ll2};

ll1 = newll;
Line Loop(ll1) = bottom10[];
ll2 = newll;
Line Loop(ll2) = top11[];
Plane Surface(news) = {ll1, ll2};
////////////////////////////////////////////////////////////////////////////////////////////////////


//For i In {0:#vol[]-1}
//	Printf("%g", vol[i]);
//EndFor
//
//For i In {0:#cSurf[]-1}
//	Printf("%g", cSurf[i]);
//EndFor
//
Delete {
	Volume{vol[]};
}

Delete {
	Surface{cSurf[]};
}

sl1 = newsl;
Surface Loop(sl1) = {Surface "*"};
Volume(newv) = {sl1};

//Physical Volume(7003) = {7002};
//Physical Surface(7004) = {6002};
//Physical Surface(7005) = {4942};
Physical Volume(8536) = {8535};
Physical Surface(8537) = {5063};
Physical Surface(8538) = {8386};
Physical Surface(8539) = {8494};
